<svg xmlns="http://www.w3.org/2000/svg" xmlns:xlink="http://www.w3.org/1999/xlink" contentStyleType="text/css" height="515.4px" preserveAspectRatio="none" style="width:1634px;height:515px;background:#FFFFFF;" version="1.1" viewBox="0 0 1634 515" width="1634.4px" zoomAndPan="magnify"><defs/><g><!--cluster com--><g id="cluster_com"><path d="M5.1,3.6082 L22.9717,3.6082 A2.25,2.25 0 0 1 24.4717,5.1082 L28.6717,18.3809 L1628.7,18.3809 A1.5,1.5 0 0 1 1630.2,19.8809 L1630.2,509.7082 A1.5,1.5 0 0 1 1628.7,511.2082 L5.1,511.2082 A1.5,1.5 0 0 1 3.6,509.7082 L3.6,5.1082 A1.5,1.5 0 0 1 5.1,3.6082 " fill="none" style="stroke:#000000;stroke-width:0.8999999999999999;"/><line style="stroke:#000000;stroke-width:0.8999999999999999;" x1="3.6" x2="28.6717" y1="18.3809" y2="18.3809"/><text fill="#000000" font-family="sans-serif" font-size="8.4" font-weight="bold" lengthAdjust="spacing" textLength="17.2717" x="6" y="13.8727">com</text></g><!--cluster example--><g id="cluster_example"><path d="M19.5,30.6082 L53.7205,30.6082 A2.25,2.25 0 0 1 55.2205,32.1082 L59.4205,45.3809 L1614.3,45.3809 A1.5,1.5 0 0 1 1615.8,46.8809 L1615.8,495.3082 A1.5,1.5 0 0 1 1614.3,496.8082 L19.5,496.8082 A1.5,1.5 0 0 1 18,495.3082 L18,32.1082 A1.5,1.5 0 0 1 19.5,30.6082 " fill="none" style="stroke:#000000;stroke-width:0.8999999999999999;"/><line style="stroke:#000000;stroke-width:0.8999999999999999;" x1="18" x2="59.4205" y1="45.3809" y2="45.3809"/><text fill="#000000" font-family="sans-serif" font-size="8.4" font-weight="bold" lengthAdjust="spacing" textLength="33.6205" x="20.4" y="40.8727">example</text></g><!--cluster linebot--><g id="cluster_linebot"><path d="M33.9,57.6082 L62.0297,57.6082 A2.25,2.25 0 0 1 63.5297,59.1082 L67.7297,72.3809 L1599.9,72.3809 A1.5,1.5 0 0 1 1601.4,73.8809 L1601.4,480.9082 A1.5,1.5 0 0 1 1599.9,482.4082 L33.9,482.4082 A1.5,1.5 0 0 1 32.4,480.9082 L32.4,59.1082 A1.5,1.5 0 0 1 33.9,57.6082 " fill="none" style="stroke:#000000;stroke-width:0.8999999999999999;"/><line style="stroke:#000000;stroke-width:0.8999999999999999;" x1="32.4" x2="67.7297" y1="72.3809" y2="72.3809"/><text fill="#000000" font-family="sans-serif" font-size="8.4" font-weight="bold" lengthAdjust="spacing" textLength="27.5297" x="34.8" y="67.8727">linebot</text></g><!--cluster replier--><g id="cluster_replier"><path d="M48.3,223.2082 L74.5799,223.2082 A2.25,2.25 0 0 1 76.0799,224.7082 L80.2799,237.9809 L1126.5,237.9809 A1.5,1.5 0 0 1 1128,239.4809 L1128,338.1082 A1.5,1.5 0 0 1 1126.5,339.6082 L48.3,339.6082 A1.5,1.5 0 0 1 46.8,338.1082 L46.8,224.7082 A1.5,1.5 0 0 1 48.3,223.2082 " fill="none" style="stroke:#000000;stroke-width:0.8999999999999999;"/><line style="stroke:#000000;stroke-width:0.8999999999999999;" x1="46.8" x2="80.2799" y1="237.9809" y2="237.9809"/><text fill="#000000" font-family="sans-serif" font-size="8.4" font-weight="bold" lengthAdjust="spacing" textLength="25.6799" x="49.2" y="233.4727">replier</text></g><!--class WebScraping--><g id="elem_WebScraping"><rect codeLine="32" fill="#F1F1F1" height="39.9727" id="WebScraping" rx="1.5" ry="1.5" style="stroke:#181818;stroke-width:0.3;" width="162.6533" x="1059.3" y="124.5082"/><ellipse cx="1112.8644" cy="134.1082" fill="#ADD1B2" rx="6.6" ry="6.6" style="stroke:#181818;stroke-width:0.6;"/><path d="M1114.5237,131.6332 Q1114.6175,131.502 1114.73,131.4363 Q1114.8425,131.3707 1114.9737,131.3707 Q1115.1987,131.3707 1115.3394,131.5301 Q1115.48,131.6801 1115.48,132.0457 L1115.48,132.9176 Q1115.48,133.2832 1115.3394,133.4426 Q1115.1987,133.602 1114.9737,133.602 Q1114.7675,133.602 1114.6456,133.4801 Q1114.5237,133.3676 1114.4581,133.0582 Q1114.43,132.8426 1114.3175,132.7301 Q1114.1206,132.5051 1113.755,132.3738 Q1113.3894,132.2426 1113.0144,132.2426 Q1112.555,132.2426 1112.1706,132.4395 Q1111.7956,132.6363 1111.4956,133.0863 Q1111.205,133.5363 1111.205,134.1551 L1111.205,134.8113 Q1111.205,135.552 1111.7394,136.0488 Q1112.2737,136.5363 1113.23,136.5363 Q1113.7925,136.5363 1114.1862,136.3863 Q1114.4206,136.2926 1114.6737,136.0301 Q1114.8331,135.8707 1114.9175,135.8238 Q1115.0112,135.777 1115.1331,135.777 Q1115.33,135.777 1115.48,135.9363 Q1115.6394,136.0863 1115.6394,136.2926 Q1115.6394,136.4988 1115.4331,136.7426 Q1115.1331,137.0895 1114.655,137.2863 Q1114.0081,137.5582 1113.23,137.5582 Q1112.3206,137.5582 1111.5987,137.1832 Q1111.0081,136.8832 1110.5956,136.2457 Q1110.1831,135.5988 1110.1831,134.8301 L1110.1831,134.1363 Q1110.1831,133.3395 1110.5487,132.6551 Q1110.9237,131.9613 1111.58,131.5957 Q1112.2362,131.2207 1112.9769,131.2207 Q1113.4175,131.2207 1113.8019,131.3238 Q1114.1956,131.4176 1114.5237,131.6332 Z " fill="#000000"/><text fill="#000000" font-family="sans-serif" font-size="8.4" lengthAdjust="spacing" textLength="50.4246" x="1125.1644" y="137.5863">WebScraping</text><line style="stroke:#181818;stroke-width:0.3;" x1="1059.9" x2="1221.3533" y1="143.7082" y2="143.7082"/><line style="stroke:#181818;stroke-width:0.3;" x1="1059.9" x2="1221.3533" y1="148.5082" y2="148.5082"/><ellipse cx="1065.9" cy="157.3945" fill="#84BE84" rx="1.8" ry="1.8" style="stroke:#038048;stroke-width:0.6;"/><text fill="#000000" font-family="sans-serif" font-size="8.4" lengthAdjust="spacing" text-decoration="underline" textLength="147.0533" x="1071.3" y="159.9727">getImageUrls(String): ArrayList&lt;String&gt;</text></g><!--class Replier--><g id="elem_Replier"><rect codeLine="36" fill="#F1F1F1" height="39.9727" id="Replier" rx="1.5" ry="1.5" style="stroke:#181818;stroke-width:0.3;" width="78.1529" x="842.4" y="124.5082"/><ellipse cx="865.9539" cy="134.1082" fill="#B4A7E5" rx="6.6" ry="6.6" style="stroke:#181818;stroke-width:0.6;"/><path d="M866.5258,132.0926 L866.5258,136.0863 L867.557,136.0863 Q867.9226,136.0863 868.082,136.227 Q868.2414,136.3676 868.2414,136.602 Q868.2414,136.827 868.082,136.9676 Q867.9226,137.1082 867.557,137.1082 L864.4726,137.1082 Q864.107,137.1082 863.9476,136.9676 Q863.7883,136.827 863.7883,136.5926 Q863.7883,136.3676 863.9476,136.227 Q864.107,136.0863 864.4726,136.0863 L865.5039,136.0863 L865.5039,132.0926 L864.4726,132.0926 Q864.107,132.0926 863.9476,131.952 Q863.7883,131.8113 863.7883,131.577 Q863.7883,131.352 863.9476,131.2113 Q864.107,131.0707 864.4726,131.0707 L867.557,131.0707 Q867.9226,131.0707 868.082,131.2113 Q868.2414,131.352 868.2414,131.577 Q868.2414,131.8113 868.082,131.952 Q867.9226,132.0926 867.557,132.0926 L866.5258,132.0926 Z " fill="#000000"/><text fill="#000000" font-family="sans-serif" font-size="8.4" font-style="italic" lengthAdjust="spacing" textLength="26.6109" x="877.5881" y="137.5863">Replier</text><line style="stroke:#181818;stroke-width:0.3;" x1="843" x2="919.9529" y1="143.7082" y2="143.7082"/><line style="stroke:#181818;stroke-width:0.3;" x1="843" x2="919.9529" y1="148.5082" y2="148.5082"/><polygon fill="#4177AF" points="849,154.9945,846.6,158.5945,851.4,158.5945" style="stroke:#1963A0;stroke-width:0.6;"/><text fill="#000000" font-family="sans-serif" font-size="8.4" lengthAdjust="spacing" textLength="62.5529" x="854.4" y="159.9727">reply(): Message</text></g><!--class UserData--><g id="elem_UserData"><rect codeLine="40" fill="#F1F1F1" height="129.3539" id="UserData" rx="1.5" ry="1.5" style="stroke:#181818;stroke-width:0.3;" width="161.7305" x="1243.2" y="79.8082"/><ellipse cx="1303.776" cy="89.4082" fill="#ADD1B2" rx="6.6" ry="6.6" style="stroke:#181818;stroke-width:0.6;"/><path d="M1305.4354,86.9332 Q1305.5291,86.802 1305.6416,86.7363 Q1305.7541,86.6707 1305.8854,86.6707 Q1306.1104,86.6707 1306.251,86.8301 Q1306.3916,86.9801 1306.3916,87.3457 L1306.3916,88.2176 Q1306.3916,88.5832 1306.251,88.7426 Q1306.1104,88.902 1305.8854,88.902 Q1305.6791,88.902 1305.5572,88.7801 Q1305.4354,88.6676 1305.3697,88.3582 Q1305.3416,88.1426 1305.2291,88.0301 Q1305.0322,87.8051 1304.6666,87.6738 Q1304.301,87.5426 1303.926,87.5426 Q1303.4666,87.5426 1303.0822,87.7395 Q1302.7072,87.9363 1302.4072,88.3863 Q1302.1166,88.8363 1302.1166,89.4551 L1302.1166,90.1113 Q1302.1166,90.852 1302.651,91.3488 Q1303.1854,91.8363 1304.1416,91.8363 Q1304.7041,91.8363 1305.0979,91.6863 Q1305.3322,91.5926 1305.5854,91.3301 Q1305.7447,91.1707 1305.8291,91.1238 Q1305.9229,91.077 1306.0447,91.077 Q1306.2416,91.077 1306.3916,91.2363 Q1306.551,91.3863 1306.551,91.5926 Q1306.551,91.7988 1306.3447,92.0426 Q1306.0447,92.3895 1305.5666,92.5863 Q1304.9197,92.8582 1304.1416,92.8582 Q1303.2322,92.8582 1302.5104,92.4832 Q1301.9197,92.1832 1301.5072,91.5457 Q1301.0947,90.8988 1301.0947,90.1301 L1301.0947,89.4363 Q1301.0947,88.6395 1301.4604,87.9551 Q1301.8354,87.2613 1302.4916,86.8957 Q1303.1479,86.5207 1303.8885,86.5207 Q1304.3291,86.5207 1304.7135,86.6238 Q1305.1072,86.7176 1305.4354,86.9332 Z " fill="#000000"/><text fill="#000000" font-family="sans-serif" font-size="8.4" lengthAdjust="spacing" textLength="35.4785" x="1316.076" y="92.8863">UserData</text><line style="stroke:#181818;stroke-width:0.3;" x1="1243.8" x2="1404.3305" y1="99.0082" y2="99.0082"/><rect fill="none" height="3.6" style="stroke:#C82930;stroke-width:0.6;" width="3.6" x="1248" y="106.0945"/><text fill="#000000" font-family="sans-serif" font-size="8.4" lengthAdjust="spacing" textLength="83.0977" x="1255.2" y="110.4727">urls: ArrayList&lt;String&gt;</text><rect fill="none" height="3.6" style="stroke:#C82930;stroke-width:0.6;" width="3.6" x="1248" y="117.2672"/><text fill="#000000" font-family="sans-serif" font-size="8.4" lengthAdjust="spacing" textLength="98.0602" x="1255.2" y="121.6453">searchingGames: boolean</text><rect fill="none" height="3.6" style="stroke:#C82930;stroke-width:0.6;" width="3.6" x="1248" y="128.4398"/><text fill="#000000" font-family="sans-serif" font-size="8.4" lengthAdjust="spacing" textLength="111.5871" x="1255.2" y="132.818">judgeListType: GameListType</text><line style="stroke:#181818;stroke-width:0.3;" x1="1243.8" x2="1404.3305" y1="137.3262" y2="137.3262"/><ellipse cx="1249.8" cy="146.2125" fill="#84BE84" rx="1.8" ry="1.8" style="stroke:#038048;stroke-width:0.6;"/><text fill="#000000" font-family="sans-serif" font-size="8.4" lengthAdjust="spacing" textLength="101.7639" x="1255.2" y="148.7906">getUrls(): ArrayList&lt;String&gt;</text><ellipse cx="1249.8" cy="157.3852" fill="#84BE84" rx="1.8" ry="1.8" style="stroke:#038048;stroke-width:0.6;"/><text fill="#000000" font-family="sans-serif" font-size="8.4" lengthAdjust="spacing" textLength="116.7346" x="1255.2" y="159.9633">getSearchingGames(): boolean</text><ellipse cx="1249.8" cy="168.5578" fill="#84BE84" rx="1.8" ry="1.8" style="stroke:#038048;stroke-width:0.6;"/><text fill="#000000" font-family="sans-serif" font-size="8.4" lengthAdjust="spacing" textLength="131.1926" x="1255.2" y="171.1359">getJudgeListType(): GameListType</text><ellipse cx="1249.8" cy="179.7305" fill="#84BE84" rx="1.8" ry="1.8" style="stroke:#038048;stroke-width:0.6;"/><text fill="#000000" font-family="sans-serif" font-size="8.4" lengthAdjust="spacing" textLength="116.7018" x="1255.2" y="182.3086">setUrls(ArrayList&lt;String&gt;): void</text><ellipse cx="1249.8" cy="190.9031" fill="#84BE84" rx="1.8" ry="1.8" style="stroke:#038048;stroke-width:0.6;"/><text fill="#000000" font-family="sans-serif" font-size="8.4" lengthAdjust="spacing" textLength="131.6725" x="1255.2" y="193.4813">setSearchingGames(boolean): void</text><ellipse cx="1249.8" cy="202.0758" fill="#84BE84" rx="1.8" ry="1.8" style="stroke:#038048;stroke-width:0.6;"/><text fill="#000000" font-family="sans-serif" font-size="8.4" lengthAdjust="spacing" textLength="146.1305" x="1255.2" y="204.6539">setJudgeListType(GameListType): void</text></g><!--class Register--><g id="elem_Register"><rect codeLine="53" fill="#F1F1F1" height="39.9727" id="Register" rx="1.5" ry="1.5" style="stroke:#181818;stroke-width:0.3;" width="164.9871" x="1426.5" y="124.5082"/><ellipse cx="1490.8043" cy="134.1082" fill="#ADD1B2" rx="6.6" ry="6.6" style="stroke:#181818;stroke-width:0.6;"/><path d="M1492.4637,131.6332 Q1492.5574,131.502 1492.6699,131.4363 Q1492.7824,131.3707 1492.9137,131.3707 Q1493.1387,131.3707 1493.2793,131.5301 Q1493.4199,131.6801 1493.4199,132.0457 L1493.4199,132.9176 Q1493.4199,133.2832 1493.2793,133.4426 Q1493.1387,133.602 1492.9137,133.602 Q1492.7074,133.602 1492.5855,133.4801 Q1492.4637,133.3676 1492.398,133.0582 Q1492.3699,132.8426 1492.2574,132.7301 Q1492.0605,132.5051 1491.6949,132.3738 Q1491.3293,132.2426 1490.9543,132.2426 Q1490.4949,132.2426 1490.1105,132.4395 Q1489.7355,132.6363 1489.4355,133.0863 Q1489.1449,133.5363 1489.1449,134.1551 L1489.1449,134.8113 Q1489.1449,135.552 1489.6793,136.0488 Q1490.2137,136.5363 1491.1699,136.5363 Q1491.7324,136.5363 1492.1262,136.3863 Q1492.3605,136.2926 1492.6137,136.0301 Q1492.773,135.8707 1492.8574,135.8238 Q1492.9512,135.777 1493.073,135.777 Q1493.2699,135.777 1493.4199,135.9363 Q1493.5793,136.0863 1493.5793,136.2926 Q1493.5793,136.4988 1493.373,136.7426 Q1493.073,137.0895 1492.5949,137.2863 Q1491.948,137.5582 1491.1699,137.5582 Q1490.2605,137.5582 1489.5387,137.1832 Q1488.948,136.8832 1488.5355,136.2457 Q1488.123,135.5988 1488.123,134.8301 L1488.123,134.1363 Q1488.123,133.3395 1488.4887,132.6551 Q1488.8637,131.9613 1489.5199,131.5957 Q1490.1762,131.2207 1490.9168,131.2207 Q1491.3574,131.2207 1491.7418,131.3238 Q1492.1355,131.4176 1492.4637,131.6332 Z " fill="#000000"/><text fill="#000000" font-family="sans-serif" font-size="8.4" lengthAdjust="spacing" textLength="31.2785" x="1503.1043" y="137.5863">Register</text><line style="stroke:#181818;stroke-width:0.3;" x1="1427.1" x2="1590.8871" y1="143.7082" y2="143.7082"/><line style="stroke:#181818;stroke-width:0.3;" x1="1427.1" x2="1590.8871" y1="148.5082" y2="148.5082"/><ellipse cx="1433.1" cy="157.3945" fill="#84BE84" rx="1.8" ry="1.8" style="stroke:#038048;stroke-width:0.6;"/><text fill="#000000" font-family="sans-serif" font-size="8.4" lengthAdjust="spacing" text-decoration="underline" textLength="149.3871" x="1438.5" y="159.9727">registerGame(String,String): JsonObject</text></g><!--class GameListType--><g id="elem_GameListType"><rect codeLine="57" fill="#F1F1F1" height="84.6633" id="GameListType" rx="1.5" ry="1.5" style="stroke:#181818;stroke-width:0.3;" width="141.1693" x="1139.7" y="245.4082"/><ellipse cx="1180.4244" cy="255.0082" fill="#EB937F" rx="6.6" ry="6.6" style="stroke:#181818;stroke-width:0.6;"/><path d="M1179.74,255.4863 L1179.74,256.9863 L1182.3369,256.9863 L1182.3369,256.4332 Q1182.3369,256.0676 1182.4775,255.9082 Q1182.6275,255.7488 1182.8525,255.7488 Q1183.0775,255.7488 1183.2182,255.9082 Q1183.3588,256.0676 1183.3588,256.4332 L1183.3588,258.0082 L1178.5588,258.0082 Q1178.1838,258.0082 1178.0244,257.8676 Q1177.8744,257.727 1177.8744,257.4926 Q1177.8744,257.2676 1178.0338,257.127 Q1178.1932,256.9863 1178.5588,256.9863 L1178.7182,256.9863 L1178.7182,252.9926 L1178.5588,252.9926 Q1178.1838,252.9926 1178.0244,252.852 Q1177.8744,252.7113 1177.8744,252.477 Q1177.8744,252.252 1178.0244,252.1113 Q1178.1838,251.9707 1178.5588,251.9707 L1183.1338,251.9707 L1183.1338,253.527 Q1183.1338,253.8926 1182.9932,254.052 Q1182.8619,254.202 1182.6275,254.202 Q1182.4025,254.202 1182.2619,254.052 Q1182.1213,253.8926 1182.1213,253.527 L1182.1213,252.9926 L1179.74,252.9926 L1179.74,254.4645 L1180.6307,254.4645 Q1180.6307,254.0707 1180.7057,253.9582 Q1180.865,253.7145 1181.1463,253.7145 Q1181.3713,253.7145 1181.5119,253.8738 Q1181.6525,254.0238 1181.6525,254.3895 L1181.6525,255.5707 Q1181.6525,255.8988 1181.5775,256.0113 Q1181.4182,256.2457 1181.1463,256.2457 Q1180.865,256.2457 1180.7057,256.002 Q1180.6307,255.8895 1180.6307,255.4863 L1179.74,255.4863 Z " fill="#000000"/><text fill="#000000" font-family="sans-serif" font-size="8.4" lengthAdjust="spacing" textLength="54.6205" x="1192.7244" y="258.4863">GameListType</text><line style="stroke:#181818;stroke-width:0.3;" x1="1140.3" x2="1280.2693" y1="264.6082" y2="264.6082"/><ellipse cx="1146.3" cy="273.4945" fill="none" rx="1.8" ry="1.8" style="stroke:#038048;stroke-width:0.6;"/><text fill="#000000" font-family="sans-serif" font-size="8.4" lengthAdjust="spacing" textLength="33.6041" x="1151.7" y="276.0727">OKINIIRI</text><ellipse cx="1146.3" cy="284.6672" fill="none" rx="1.8" ry="1.8" style="stroke:#038048;stroke-width:0.6;"/><text fill="#000000" font-family="sans-serif" font-size="8.4" lengthAdjust="spacing" textLength="49.4689" x="1151.7" y="287.2453">YATTEMITAI</text><ellipse cx="1146.3" cy="295.8398" fill="none" rx="1.8" ry="1.8" style="stroke:#038048;stroke-width:0.6;"/><text fill="#000000" font-family="sans-serif" font-size="8.4" lengthAdjust="spacing" textLength="24.2689" x="1151.7" y="298.418">NONE</text><line style="stroke:#181818;stroke-width:0.3;" x1="1140.3" x2="1280.2693" y1="302.9262" y2="302.9262"/><ellipse cx="1146.3" cy="311.8125" fill="#84BE84" rx="1.8" ry="1.8" style="stroke:#038048;stroke-width:0.6;"/><text fill="#000000" font-family="sans-serif" font-size="8.4" lengthAdjust="spacing" text-decoration="underline" textLength="125.5693" x="1151.7" y="314.3906">fromString(String): GameListType</text><ellipse cx="1146.3" cy="322.9852" fill="#84BE84" rx="1.8" ry="1.8" style="stroke:#038048;stroke-width:0.6;"/><text fill="#000000" font-family="sans-serif" font-size="8.4" lengthAdjust="spacing" text-decoration="underline" textLength="115.7748" x="1151.7" y="325.5633">toString(GameListType): String</text></g><!--class LinebotApplication--><g id="elem_LinebotApplication"><rect codeLine="66" fill="#F1F1F1" height="39.9727" id="LinebotApplication" rx="1.5" ry="1.5" style="stroke:#181818;stroke-width:0.3;" width="87.852" x="1302" y="267.6082"/><ellipse cx="1311" cy="277.2082" fill="#ADD1B2" rx="6.6" ry="6.6" style="stroke:#181818;stroke-width:0.6;"/><path d="M1312.6594,274.7332 Q1312.7531,274.602 1312.8656,274.5363 Q1312.9781,274.4707 1313.1094,274.4707 Q1313.3344,274.4707 1313.475,274.6301 Q1313.6156,274.7801 1313.6156,275.1457 L1313.6156,276.0176 Q1313.6156,276.3832 1313.475,276.5426 Q1313.3344,276.702 1313.1094,276.702 Q1312.9031,276.702 1312.7813,276.5801 Q1312.6594,276.4676 1312.5938,276.1582 Q1312.5656,275.9426 1312.4531,275.8301 Q1312.2563,275.6051 1311.8906,275.4738 Q1311.525,275.3426 1311.15,275.3426 Q1310.6906,275.3426 1310.3062,275.5395 Q1309.9312,275.7363 1309.6313,276.1863 Q1309.3406,276.6363 1309.3406,277.2551 L1309.3406,277.9113 Q1309.3406,278.652 1309.875,279.1488 Q1310.4094,279.6363 1311.3656,279.6363 Q1311.9281,279.6363 1312.3219,279.4863 Q1312.5562,279.3926 1312.8094,279.1301 Q1312.9688,278.9707 1313.0531,278.9238 Q1313.1469,278.877 1313.2688,278.877 Q1313.4656,278.877 1313.6156,279.0363 Q1313.775,279.1863 1313.775,279.3926 Q1313.775,279.5988 1313.5688,279.8426 Q1313.2688,280.1895 1312.7906,280.3863 Q1312.1438,280.6582 1311.3656,280.6582 Q1310.4563,280.6582 1309.7344,280.2832 Q1309.1438,279.9832 1308.7313,279.3457 Q1308.3188,278.6988 1308.3188,277.9301 L1308.3188,277.2363 Q1308.3188,276.4395 1308.6844,275.7551 Q1309.0594,275.0613 1309.7156,274.6957 Q1310.3719,274.3207 1311.1125,274.3207 Q1311.5531,274.3207 1311.9375,274.4238 Q1312.3313,274.5176 1312.6594,274.7332 Z " fill="#000000"/><text fill="#000000" font-family="sans-serif" font-size="8.4" lengthAdjust="spacing" textLength="68.652" x="1319.4" y="280.6863">LinebotApplication</text><line style="stroke:#181818;stroke-width:0.3;" x1="1302.6" x2="1389.252" y1="286.8082" y2="286.8082"/><line style="stroke:#181818;stroke-width:0.3;" x1="1302.6" x2="1389.252" y1="291.6082" y2="291.6082"/><ellipse cx="1308.6" cy="300.4945" fill="#84BE84" rx="1.8" ry="1.8" style="stroke:#038048;stroke-width:0.6;"/><text fill="#000000" font-family="sans-serif" font-size="8.4" lengthAdjust="spacing" text-decoration="underline" textLength="70.4895" x="1314" y="303.0727">main(String[]): void</text></g><!--class SaveData--><g id="elem_SaveData"><rect codeLine="70" fill="#F1F1F1" height="39.9727" id="SaveData" rx="1.5" ry="1.5" style="stroke:#181818;stroke-width:0.3;" width="181.3359" x="1410.6" y="267.6082"/><ellipse cx="1480.2732" cy="277.2082" fill="#ADD1B2" rx="6.6" ry="6.6" style="stroke:#181818;stroke-width:0.6;"/><path d="M1481.9326,274.7332 Q1482.0264,274.602 1482.1389,274.5363 Q1482.2514,274.4707 1482.3826,274.4707 Q1482.6076,274.4707 1482.7482,274.6301 Q1482.8889,274.7801 1482.8889,275.1457 L1482.8889,276.0176 Q1482.8889,276.3832 1482.7482,276.5426 Q1482.6076,276.702 1482.3826,276.702 Q1482.1764,276.702 1482.0545,276.5801 Q1481.9326,276.4676 1481.867,276.1582 Q1481.8389,275.9426 1481.7264,275.8301 Q1481.5295,275.6051 1481.1639,275.4738 Q1480.7982,275.3426 1480.4232,275.3426 Q1479.9639,275.3426 1479.5795,275.5395 Q1479.2045,275.7363 1478.9045,276.1863 Q1478.6139,276.6363 1478.6139,277.2551 L1478.6139,277.9113 Q1478.6139,278.652 1479.1482,279.1488 Q1479.6826,279.6363 1480.6389,279.6363 Q1481.2014,279.6363 1481.5951,279.4863 Q1481.8295,279.3926 1482.0826,279.1301 Q1482.242,278.9707 1482.3264,278.9238 Q1482.4201,278.877 1482.542,278.877 Q1482.7389,278.877 1482.8889,279.0363 Q1483.0482,279.1863 1483.0482,279.3926 Q1483.0482,279.5988 1482.842,279.8426 Q1482.542,280.1895 1482.0639,280.3863 Q1481.417,280.6582 1480.6389,280.6582 Q1479.7295,280.6582 1479.0076,280.2832 Q1478.417,279.9832 1478.0045,279.3457 Q1477.592,278.6988 1477.592,277.9301 L1477.592,277.2363 Q1477.592,276.4395 1477.9576,275.7551 Q1478.3326,275.0613 1478.9889,274.6957 Q1479.6451,274.3207 1480.3857,274.3207 Q1480.8264,274.3207 1481.2107,274.4238 Q1481.6045,274.5176 1481.9326,274.7332 Z " fill="#000000"/><text fill="#000000" font-family="sans-serif" font-size="8.4" lengthAdjust="spacing" textLength="36.8895" x="1492.5732" y="280.6863">SaveData</text><line style="stroke:#181818;stroke-width:0.3;" x1="1411.2" x2="1591.3359" y1="286.8082" y2="286.8082"/><line style="stroke:#181818;stroke-width:0.3;" x1="1411.2" x2="1591.3359" y1="291.6082" y2="291.6082"/><ellipse cx="1417.2" cy="300.4945" fill="#84BE84" rx="1.8" ry="1.8" style="stroke:#038048;stroke-width:0.6;"/><text fill="#000000" font-family="sans-serif" font-size="8.4" lengthAdjust="spacing" text-decoration="underline" textLength="165.7359" x="1422.6" y="303.0727">saveToJson(String,String,String,String): void</text></g><!--class Json--><g id="elem_Json"><rect codeLine="74" fill="#F1F1F1" height="95.8359" id="Json" rx="1.5" ry="1.5" style="stroke:#181818;stroke-width:0.3;" width="230.8131" x="1094.7" y="371.4082"/><ellipse cx="1198.6849" cy="381.0082" fill="#ADD1B2" rx="6.6" ry="6.6" style="stroke:#181818;stroke-width:0.6;"/><path d="M1200.3442,378.5332 Q1200.438,378.402 1200.5505,378.3363 Q1200.663,378.2707 1200.7942,378.2707 Q1201.0192,378.2707 1201.1599,378.4301 Q1201.3005,378.5801 1201.3005,378.9457 L1201.3005,379.8176 Q1201.3005,380.1832 1201.1599,380.3426 Q1201.0192,380.502 1200.7942,380.502 Q1200.588,380.502 1200.4661,380.3801 Q1200.3442,380.2676 1200.2786,379.9582 Q1200.2505,379.7426 1200.138,379.6301 Q1199.9411,379.4051 1199.5755,379.2738 Q1199.2099,379.1426 1198.8349,379.1426 Q1198.3755,379.1426 1197.9911,379.3395 Q1197.6161,379.5363 1197.3161,379.9863 Q1197.0255,380.4363 1197.0255,381.0551 L1197.0255,381.7113 Q1197.0255,382.452 1197.5599,382.9488 Q1198.0942,383.4363 1199.0505,383.4363 Q1199.613,383.4363 1200.0067,383.2863 Q1200.2411,383.1926 1200.4942,382.9301 Q1200.6536,382.7707 1200.738,382.7238 Q1200.8317,382.677 1200.9536,382.677 Q1201.1505,382.677 1201.3005,382.8363 Q1201.4599,382.9863 1201.4599,383.1926 Q1201.4599,383.3988 1201.2536,383.6426 Q1200.9536,383.9895 1200.4755,384.1863 Q1199.8286,384.4582 1199.0505,384.4582 Q1198.1411,384.4582 1197.4192,384.0832 Q1196.8286,383.7832 1196.4161,383.1457 Q1196.0036,382.4988 1196.0036,381.7301 L1196.0036,381.0363 Q1196.0036,380.2395 1196.3692,379.5551 Q1196.7442,378.8613 1197.4005,378.4957 Q1198.0567,378.1207 1198.7974,378.1207 Q1199.238,378.1207 1199.6224,378.2238 Q1200.0161,378.3176 1200.3442,378.5332 Z " fill="#000000"/><text fill="#000000" font-family="sans-serif" font-size="8.4" lengthAdjust="spacing" textLength="17.7434" x="1210.9849" y="384.4863">Json</text><line style="stroke:#181818;stroke-width:0.3;" x1="1095.3" x2="1324.9131" y1="390.6082" y2="390.6082"/><rect fill="none" height="3.6" style="stroke:#C82930;stroke-width:0.6;" width="3.6" x="1099.5" y="397.6945"/><text fill="#000000" font-family="sans-serif" font-size="8.4" lengthAdjust="spacing" text-decoration="underline" textLength="59.3004" x="1106.7" y="402.0727">jsonPath: String</text><line style="stroke:#181818;stroke-width:0.3;" x1="1095.3" x2="1324.9131" y1="406.5809" y2="406.5809"/><ellipse cx="1101.3" cy="415.4672" fill="#84BE84" rx="1.8" ry="1.8" style="stroke:#038048;stroke-width:0.6;"/><text fill="#000000" font-family="sans-serif" font-size="8.4" lengthAdjust="spacing" text-decoration="underline" textLength="194.6643" x="1106.7" y="418.0453">getImgUrls(GameListType,String): ArrayList&lt;String&gt;</text><ellipse cx="1101.3" cy="426.6398" fill="#84BE84" rx="1.8" ry="1.8" style="stroke:#038048;stroke-width:0.6;"/><text fill="#000000" font-family="sans-serif" font-size="8.4" lengthAdjust="spacing" text-decoration="underline" textLength="215.2131" x="1106.7" y="429.218">getGameNames(GameListType,String): ArrayList&lt;String&gt;</text><ellipse cx="1101.3" cy="437.8125" fill="#84BE84" rx="1.8" ry="1.8" style="stroke:#038048;stroke-width:0.6;"/><text fill="#000000" font-family="sans-serif" font-size="8.4" lengthAdjust="spacing" text-decoration="underline" textLength="174.6076" x="1106.7" y="440.3906">deleteGame(GameListType,String,String): void</text><ellipse cx="1101.3" cy="448.9852" fill="#84BE84" rx="1.8" ry="1.8" style="stroke:#038048;stroke-width:0.6;"/><text fill="#000000" font-family="sans-serif" font-size="8.4" lengthAdjust="spacing" text-decoration="underline" textLength="85.4273" x="1106.7" y="451.5633">write(JsonObject): void</text><rect fill="#F24D5C" height="3.6" style="stroke:#C82930;stroke-width:0.6;" width="3.6" x="1099.5" y="458.3578"/><text fill="#000000" font-family="sans-serif" font-size="8.4" lengthAdjust="spacing" text-decoration="underline" textLength="49.0178" x="1106.7" y="462.7359">read(): String</text></g><!--class Callback--><g id="elem_Callback"><rect codeLine="83" fill="#F1F1F1" height="107.0086" id="Callback" rx="1.5" ry="1.5" style="stroke:#181818;stroke-width:0.3;" width="235.4971" x="1347" y="366.0082"/><ellipse cx="1446.0917" cy="375.6082" fill="#ADD1B2" rx="6.6" ry="6.6" style="stroke:#181818;stroke-width:0.6;"/><path d="M1447.7511,373.1332 Q1447.8448,373.002 1447.9573,372.9363 Q1448.0698,372.8707 1448.2011,372.8707 Q1448.4261,372.8707 1448.5667,373.0301 Q1448.7073,373.1801 1448.7073,373.5457 L1448.7073,374.4176 Q1448.7073,374.7832 1448.5667,374.9426 Q1448.4261,375.102 1448.2011,375.102 Q1447.9948,375.102 1447.8729,374.9801 Q1447.7511,374.8676 1447.6854,374.5582 Q1447.6573,374.3426 1447.5448,374.2301 Q1447.3479,374.0051 1446.9823,373.8738 Q1446.6167,373.7426 1446.2417,373.7426 Q1445.7823,373.7426 1445.3979,373.9395 Q1445.0229,374.1363 1444.7229,374.5863 Q1444.4323,375.0363 1444.4323,375.6551 L1444.4323,376.3113 Q1444.4323,377.052 1444.9667,377.5488 Q1445.5011,378.0363 1446.4573,378.0363 Q1447.0198,378.0363 1447.4136,377.8863 Q1447.6479,377.7926 1447.9011,377.5301 Q1448.0604,377.3707 1448.1448,377.3238 Q1448.2386,377.277 1448.3604,377.277 Q1448.5573,377.277 1448.7073,377.4363 Q1448.8667,377.5863 1448.8667,377.7926 Q1448.8667,377.9988 1448.6604,378.2426 Q1448.3604,378.5895 1447.8823,378.7863 Q1447.2354,379.0582 1446.4573,379.0582 Q1445.5479,379.0582 1444.8261,378.6832 Q1444.2354,378.3832 1443.8229,377.7457 Q1443.4104,377.0988 1443.4104,376.3301 L1443.4104,375.6363 Q1443.4104,374.8395 1443.7761,374.1551 Q1444.1511,373.4613 1444.8073,373.0957 Q1445.4636,372.7207 1446.2042,372.7207 Q1446.6448,372.7207 1447.0292,372.8238 Q1447.4229,372.9176 1447.7511,373.1332 Z " fill="#000000"/><text fill="#000000" font-family="sans-serif" font-size="8.4" lengthAdjust="spacing" textLength="32.2137" x="1458.3917" y="379.0863">Callback</text><line style="stroke:#181818;stroke-width:0.3;" x1="1347.6" x2="1581.8971" y1="385.2082" y2="385.2082"/><rect fill="none" height="3.6" style="stroke:#C82930;stroke-width:0.6;" width="3.6" x="1351.8" y="392.2945"/><text fill="#000000" font-family="sans-serif" font-size="8.4" lengthAdjust="spacing" textLength="160.609" x="1359" y="396.6727">userDataMap: HashMap&lt;String,UserData&gt;</text><line style="stroke:#181818;stroke-width:0.3;" x1="1347.6" x2="1581.8971" y1="401.1809" y2="401.1809"/><ellipse cx="1353.6" cy="410.0672" fill="#84BE84" rx="1.8" ry="1.8" style="stroke:#038048;stroke-width:0.6;"/><text fill="#000000" font-family="sans-serif" font-size="8.4" lengthAdjust="spacing" textLength="202.1701" x="1359" y="412.6453">handleMessage(MessageEvent): ArrayList&lt;Message&gt;</text><ellipse cx="1353.6" cy="421.2398" fill="#84BE84" rx="1.8" ry="1.8" style="stroke:#038048;stroke-width:0.6;"/><text fill="#000000" font-family="sans-serif" font-size="8.4" lengthAdjust="spacing" textLength="126.5127" x="1359" y="423.818">buildConfirm(): TemplateMessage</text><ellipse cx="1353.6" cy="432.4125" fill="#84BE84" rx="1.8" ry="1.8" style="stroke:#038048;stroke-width:0.6;"/><text fill="#000000" font-family="sans-serif" font-size="8.4" lengthAdjust="spacing" textLength="147.525" x="1359" y="434.9906">buildConfirmShow(): TemplateMessage</text><ellipse cx="1353.6" cy="443.5852" fill="#84BE84" rx="1.8" ry="1.8" style="stroke:#038048;stroke-width:0.6;"/><text fill="#000000" font-family="sans-serif" font-size="8.4" lengthAdjust="spacing" textLength="172.7414" x="1359" y="446.1633">buildReply(String,String): ArrayList&lt;Message&gt;</text><ellipse cx="1353.6" cy="454.7578" fill="#84BE84" rx="1.8" ry="1.8" style="stroke:#038048;stroke-width:0.6;"/><text fill="#000000" font-family="sans-serif" font-size="8.4" lengthAdjust="spacing" textLength="219.8971" x="1359" y="457.3359">buildReplyMessageList(String,String): ArrayList&lt;Message&gt;</text><ellipse cx="1353.6" cy="465.9305" fill="#84BE84" rx="1.8" ry="1.8" style="stroke:#038048;stroke-width:0.6;"/><text fill="#000000" font-family="sans-serif" font-size="8.4" lengthAdjust="spacing" textLength="201.6861" x="1359" y="468.5086">buildReplyMessage(String,String,UserData): Message</text></g><!--class Help--><g id="elem_Help"><rect codeLine="1" fill="#F1F1F1" height="39.9727" id="Help" rx="1.5" ry="1.5" style="stroke:#181818;stroke-width:0.3;" width="78.1529" x="1040.4" y="267.6082"/><ellipse cx="1068.2886" cy="277.2082" fill="#ADD1B2" rx="6.6" ry="6.6" style="stroke:#181818;stroke-width:0.6;"/><path d="M1069.9479,274.7332 Q1070.0417,274.602 1070.1542,274.5363 Q1070.2667,274.4707 1070.3979,274.4707 Q1070.6229,274.4707 1070.7636,274.6301 Q1070.9042,274.7801 1070.9042,275.1457 L1070.9042,276.0176 Q1070.9042,276.3832 1070.7636,276.5426 Q1070.6229,276.702 1070.3979,276.702 Q1070.1917,276.702 1070.0698,276.5801 Q1069.9479,276.4676 1069.8823,276.1582 Q1069.8542,275.9426 1069.7417,275.8301 Q1069.5448,275.6051 1069.1792,275.4738 Q1068.8136,275.3426 1068.4386,275.3426 Q1067.9792,275.3426 1067.5948,275.5395 Q1067.2198,275.7363 1066.9198,276.1863 Q1066.6292,276.6363 1066.6292,277.2551 L1066.6292,277.9113 Q1066.6292,278.652 1067.1636,279.1488 Q1067.6979,279.6363 1068.6542,279.6363 Q1069.2167,279.6363 1069.6104,279.4863 Q1069.8448,279.3926 1070.0979,279.1301 Q1070.2573,278.9707 1070.3417,278.9238 Q1070.4354,278.877 1070.5573,278.877 Q1070.7542,278.877 1070.9042,279.0363 Q1071.0636,279.1863 1071.0636,279.3926 Q1071.0636,279.5988 1070.8573,279.8426 Q1070.5573,280.1895 1070.0792,280.3863 Q1069.4323,280.6582 1068.6542,280.6582 Q1067.7448,280.6582 1067.0229,280.2832 Q1066.4323,279.9832 1066.0198,279.3457 Q1065.6073,278.6988 1065.6073,277.9301 L1065.6073,277.2363 Q1065.6073,276.4395 1065.9729,275.7551 Q1066.3479,275.0613 1067.0042,274.6957 Q1067.6604,274.3207 1068.4011,274.3207 Q1068.8417,274.3207 1069.2261,274.4238 Q1069.6198,274.5176 1069.9479,274.7332 Z " fill="#000000"/><text fill="#000000" font-family="sans-serif" font-size="8.4" lengthAdjust="spacing" textLength="17.2758" x="1080.5886" y="280.6863">Help</text><line style="stroke:#181818;stroke-width:0.3;" x1="1041" x2="1117.9529" y1="286.8082" y2="286.8082"/><line style="stroke:#181818;stroke-width:0.3;" x1="1041" x2="1117.9529" y1="291.6082" y2="291.6082"/><ellipse cx="1047" cy="300.4945" fill="#84BE84" rx="1.8" ry="1.8" style="stroke:#038048;stroke-width:0.6;"/><text fill="#000000" font-family="sans-serif" font-size="8.4" lengthAdjust="spacing" textLength="62.5529" x="1052.4" y="303.0727">reply(): Message</text></g><!--class Omikuji--><g id="elem_Omikuji"><rect codeLine="5" fill="#F1F1F1" height="39.9727" id="Omikuji" rx="1.5" ry="1.5" style="stroke:#181818;stroke-width:0.3;" width="78.1529" x="941.4" y="267.6082"/><ellipse cx="964.3282" cy="277.2082" fill="#ADD1B2" rx="6.6" ry="6.6" style="stroke:#181818;stroke-width:0.6;"/><path d="M965.9876,274.7332 Q966.0813,274.602 966.1938,274.5363 Q966.3063,274.4707 966.4376,274.4707 Q966.6626,274.4707 966.8032,274.6301 Q966.9438,274.7801 966.9438,275.1457 L966.9438,276.0176 Q966.9438,276.3832 966.8032,276.5426 Q966.6626,276.702 966.4376,276.702 Q966.2313,276.702 966.1095,276.5801 Q965.9876,276.4676 965.922,276.1582 Q965.8938,275.9426 965.7813,275.8301 Q965.5845,275.6051 965.2188,275.4738 Q964.8532,275.3426 964.4782,275.3426 Q964.0188,275.3426 963.6345,275.5395 Q963.2595,275.7363 962.9595,276.1863 Q962.6688,276.6363 962.6688,277.2551 L962.6688,277.9113 Q962.6688,278.652 963.2032,279.1488 Q963.7376,279.6363 964.6938,279.6363 Q965.2563,279.6363 965.6501,279.4863 Q965.8845,279.3926 966.1376,279.1301 Q966.297,278.9707 966.3813,278.9238 Q966.4751,278.877 966.597,278.877 Q966.7938,278.877 966.9438,279.0363 Q967.1032,279.1863 967.1032,279.3926 Q967.1032,279.5988 966.897,279.8426 Q966.597,280.1895 966.1188,280.3863 Q965.472,280.6582 964.6938,280.6582 Q963.7845,280.6582 963.0626,280.2832 Q962.472,279.9832 962.0595,279.3457 Q961.647,278.6988 961.647,277.9301 L961.647,277.2363 Q961.647,276.4395 962.0126,275.7551 Q962.3876,275.0613 963.0438,274.6957 Q963.7001,274.3207 964.4407,274.3207 Q964.8813,274.3207 965.2657,274.4238 Q965.6595,274.5176 965.9876,274.7332 Z " fill="#000000"/><text fill="#000000" font-family="sans-serif" font-size="8.4" lengthAdjust="spacing" textLength="28.0014" x="975.8234" y="280.6863">Omikuji</text><line style="stroke:#181818;stroke-width:0.3;" x1="942" x2="1018.9529" y1="286.8082" y2="286.8082"/><line style="stroke:#181818;stroke-width:0.3;" x1="942" x2="1018.9529" y1="291.6082" y2="291.6082"/><ellipse cx="948" cy="300.4945" fill="#84BE84" rx="1.8" ry="1.8" style="stroke:#038048;stroke-width:0.6;"/><text fill="#000000" font-family="sans-serif" font-size="8.4" lengthAdjust="spacing" textLength="62.5529" x="953.4" y="303.0727">reply(): Message</text></g><!--class Greet--><g id="elem_Greet"><rect codeLine="9" fill="#F1F1F1" height="39.9727" id="Greet" rx="1.5" ry="1.5" style="stroke:#181818;stroke-width:0.3;" width="78.1529" x="842.4" y="267.6082"/><ellipse cx="868.4751" cy="277.2082" fill="#ADD1B2" rx="6.6" ry="6.6" style="stroke:#181818;stroke-width:0.6;"/><path d="M870.1345,274.7332 Q870.2283,274.602 870.3408,274.5363 Q870.4533,274.4707 870.5845,274.4707 Q870.8095,274.4707 870.9501,274.6301 Q871.0908,274.7801 871.0908,275.1457 L871.0908,276.0176 Q871.0908,276.3832 870.9501,276.5426 Q870.8095,276.702 870.5845,276.702 Q870.3783,276.702 870.2564,276.5801 Q870.1345,276.4676 870.0689,276.1582 Q870.0408,275.9426 869.9283,275.8301 Q869.7314,275.6051 869.3658,275.4738 Q869.0001,275.3426 868.6251,275.3426 Q868.1658,275.3426 867.7814,275.5395 Q867.4064,275.7363 867.1064,276.1863 Q866.8158,276.6363 866.8158,277.2551 L866.8158,277.9113 Q866.8158,278.652 867.3501,279.1488 Q867.8845,279.6363 868.8408,279.6363 Q869.4033,279.6363 869.797,279.4863 Q870.0314,279.3926 870.2845,279.1301 Q870.4439,278.9707 870.5283,278.9238 Q870.622,278.877 870.7439,278.877 Q870.9408,278.877 871.0908,279.0363 Q871.2501,279.1863 871.2501,279.3926 Q871.2501,279.5988 871.0439,279.8426 Q870.7439,280.1895 870.2658,280.3863 Q869.6189,280.6582 868.8408,280.6582 Q867.9314,280.6582 867.2095,280.2832 Q866.6189,279.9832 866.2064,279.3457 Q865.7939,278.6988 865.7939,277.9301 L865.7939,277.2363 Q865.7939,276.4395 866.1595,275.7551 Q866.5345,275.0613 867.1908,274.6957 Q867.847,274.3207 868.5876,274.3207 Q869.0283,274.3207 869.4126,274.4238 Q869.8064,274.5176 870.1345,274.7332 Z " fill="#000000"/><text fill="#000000" font-family="sans-serif" font-size="8.4" lengthAdjust="spacing" textLength="21.0082" x="880.6696" y="280.6863">Greet</text><line style="stroke:#181818;stroke-width:0.3;" x1="843" x2="919.9529" y1="286.8082" y2="286.8082"/><line style="stroke:#181818;stroke-width:0.3;" x1="843" x2="919.9529" y1="291.6082" y2="291.6082"/><ellipse cx="849" cy="300.4945" fill="#84BE84" rx="1.8" ry="1.8" style="stroke:#038048;stroke-width:0.6;"/><text fill="#000000" font-family="sans-serif" font-size="8.4" lengthAdjust="spacing" textLength="62.5529" x="854.4" y="303.0727">reply(): Message</text></g><!--class Parrot--><g id="elem_Parrot"><rect codeLine="13" fill="#F1F1F1" height="62.318" id="Parrot" rx="1.5" ry="1.5" style="stroke:#181818;stroke-width:0.3;" width="78.1529" x="743.4" y="256.5082"/><ellipse cx="768.6353" cy="266.1082" fill="#ADD1B2" rx="6.6" ry="6.6" style="stroke:#181818;stroke-width:0.6;"/><path d="M770.2947,263.6332 Q770.3885,263.502 770.501,263.4363 Q770.6135,263.3707 770.7447,263.3707 Q770.9697,263.3707 771.1103,263.5301 Q771.251,263.6801 771.251,264.0457 L771.251,264.9176 Q771.251,265.2832 771.1103,265.4426 Q770.9697,265.602 770.7447,265.602 Q770.5385,265.602 770.4166,265.4801 Q770.2947,265.3676 770.2291,265.0582 Q770.201,264.8426 770.0885,264.7301 Q769.8916,264.5051 769.526,264.3738 Q769.1603,264.2426 768.7853,264.2426 Q768.326,264.2426 767.9416,264.4395 Q767.5666,264.6363 767.2666,265.0863 Q766.976,265.5363 766.976,266.1551 L766.976,266.8113 Q766.976,267.552 767.5103,268.0488 Q768.0447,268.5363 769.001,268.5363 Q769.5635,268.5363 769.9572,268.3863 Q770.1916,268.2926 770.4447,268.0301 Q770.6041,267.8707 770.6885,267.8238 Q770.7822,267.777 770.9041,267.777 Q771.101,267.777 771.251,267.9363 Q771.4103,268.0863 771.4103,268.2926 Q771.4103,268.4988 771.2041,268.7426 Q770.9041,269.0895 770.426,269.2863 Q769.7791,269.5582 769.001,269.5582 Q768.0916,269.5582 767.3697,269.1832 Q766.7791,268.8832 766.3666,268.2457 Q765.9541,267.5988 765.9541,266.8301 L765.9541,266.1363 Q765.9541,265.3395 766.3197,264.6551 Q766.6947,263.9613 767.351,263.5957 Q768.0072,263.2207 768.7478,263.2207 Q769.1885,263.2207 769.5728,263.3238 Q769.9666,263.4176 770.2947,263.6332 Z " fill="#000000"/><text fill="#000000" font-family="sans-serif" font-size="8.4" lengthAdjust="spacing" textLength="22.8744" x="780.6432" y="269.5863">Parrot</text><line style="stroke:#181818;stroke-width:0.3;" x1="744" x2="820.9529" y1="275.7082" y2="275.7082"/><rect fill="none" height="3.6" style="stroke:#C82930;stroke-width:0.6;" width="3.6" x="748.2" y="282.7945"/><text fill="#000000" font-family="sans-serif" font-size="8.4" lengthAdjust="spacing" textLength="40.1502" x="755.4" y="287.1727">text: String</text><line style="stroke:#181818;stroke-width:0.3;" x1="744" x2="820.9529" y1="291.6809" y2="291.6809"/><ellipse cx="750" cy="300.5672" fill="#84BE84" rx="1.8" ry="1.8" style="stroke:#038048;stroke-width:0.6;"/><text fill="#000000" font-family="sans-serif" font-size="8.4" lengthAdjust="spacing" textLength="50.4123" x="755.4" y="303.1453">Parrot(String)</text><ellipse cx="750" cy="311.7398" fill="#84BE84" rx="1.8" ry="1.8" style="stroke:#038048;stroke-width:0.6;"/><text fill="#000000" font-family="sans-serif" font-size="8.4" lengthAdjust="spacing" textLength="62.5529" x="755.4" y="314.318">reply(): Message</text></g><!--class CreateCarouselList--><g id="elem_CreateCarouselList"><rect codeLine="20" fill="#F1F1F1" height="51.1453" id="CreateCarouselList" rx="1.5" ry="1.5" style="stroke:#181818;stroke-width:0.3;" width="394.2398" x="327.9" y="262.2082"/><ellipse cx="486.5197" cy="271.8082" fill="#ADD1B2" rx="6.6" ry="6.6" style="stroke:#181818;stroke-width:0.6;"/><path d="M488.1791,269.3332 Q488.2729,269.202 488.3854,269.1363 Q488.4979,269.0707 488.6291,269.0707 Q488.8541,269.0707 488.9947,269.2301 Q489.1354,269.3801 489.1354,269.7457 L489.1354,270.6176 Q489.1354,270.9832 488.9947,271.1426 Q488.8541,271.302 488.6291,271.302 Q488.4229,271.302 488.301,271.1801 Q488.1791,271.0676 488.1135,270.7582 Q488.0854,270.5426 487.9729,270.4301 Q487.776,270.2051 487.4104,270.0738 Q487.0447,269.9426 486.6697,269.9426 Q486.2104,269.9426 485.826,270.1395 Q485.451,270.3363 485.151,270.7863 Q484.8604,271.2363 484.8604,271.8551 L484.8604,272.5113 Q484.8604,273.252 485.3947,273.7488 Q485.9291,274.2363 486.8854,274.2363 Q487.4479,274.2363 487.8416,274.0863 Q488.076,273.9926 488.3291,273.7301 Q488.4885,273.5707 488.5729,273.5238 Q488.6666,273.477 488.7885,273.477 Q488.9854,273.477 489.1354,273.6363 Q489.2947,273.7863 489.2947,273.9926 Q489.2947,274.1988 489.0885,274.4426 Q488.7885,274.7895 488.3104,274.9863 Q487.6635,275.2582 486.8854,275.2582 Q485.976,275.2582 485.2541,274.8832 Q484.6635,274.5832 484.251,273.9457 Q483.8385,273.2988 483.8385,272.5301 L483.8385,271.8363 Q483.8385,271.0395 484.2041,270.3551 Q484.5791,269.6613 485.2354,269.2957 Q485.8916,268.9207 486.6322,268.9207 Q487.0729,268.9207 487.4572,269.0238 Q487.851,269.1176 488.1791,269.3332 Z " fill="#000000"/><text fill="#000000" font-family="sans-serif" font-size="8.4" lengthAdjust="spacing" textLength="71.9004" x="498.8197" y="275.2863">CreateCarouselList</text><line style="stroke:#181818;stroke-width:0.3;" x1="328.5" x2="721.5398" y1="281.4082" y2="281.4082"/><line style="stroke:#181818;stroke-width:0.3;" x1="328.5" x2="721.5398" y1="286.2082" y2="286.2082"/><ellipse cx="334.5" cy="295.0945" fill="#84BE84" rx="1.8" ry="1.8" style="stroke:#038048;stroke-width:0.6;"/><text fill="#000000" font-family="sans-serif" font-size="8.4" lengthAdjust="spacing" text-decoration="underline" textLength="378.6398" x="339.9" y="297.6727">createCarouselList(ArrayList&lt;String&gt;,ArrayList&lt;String&gt;,GameListType,boolean): ArrayList&lt;Message&gt;</text><rect fill="#F24D5C" height="3.6" style="stroke:#C82930;stroke-width:0.6;" width="3.6" x="332.7" y="304.4672"/><text fill="#000000" font-family="sans-serif" font-size="8.4" lengthAdjust="spacing" text-decoration="underline" textLength="361.8357" x="339.9" y="308.8453">createSubBubbleList(ArrayList&lt;String&gt;,ArrayList&lt;String&gt;,GameListType): ArrayList&lt;FlexBubble&gt;</text></g><!--class CarouselSearchGame--><g id="elem_CarouselSearchGame"><rect codeLine="25" fill="#F1F1F1" height="84.6633" id="CarouselSearchGame" rx="1.5" ry="1.5" style="stroke:#181818;stroke-width:0.3;" width="250.4268" x="56.7" y="245.4082"/><ellipse cx="137.8104" cy="255.0082" fill="#ADD1B2" rx="6.6" ry="6.6" style="stroke:#181818;stroke-width:0.6;"/><path d="M139.4698,252.5332 Q139.5636,252.402 139.6761,252.3363 Q139.7886,252.2707 139.9198,252.2707 Q140.1448,252.2707 140.2854,252.4301 Q140.4261,252.5801 140.4261,252.9457 L140.4261,253.8176 Q140.4261,254.1832 140.2854,254.3426 Q140.1448,254.502 139.9198,254.502 Q139.7136,254.502 139.5917,254.3801 Q139.4698,254.2676 139.4042,253.9582 Q139.3761,253.7426 139.2636,253.6301 Q139.0667,253.4051 138.7011,253.2738 Q138.3354,253.1426 137.9604,253.1426 Q137.5011,253.1426 137.1167,253.3395 Q136.7417,253.5363 136.4417,253.9863 Q136.1511,254.4363 136.1511,255.0551 L136.1511,255.7113 Q136.1511,256.452 136.6854,256.9488 Q137.2198,257.4363 138.1761,257.4363 Q138.7386,257.4363 139.1323,257.2863 Q139.3667,257.1926 139.6198,256.9301 Q139.7792,256.7707 139.8636,256.7238 Q139.9573,256.677 140.0792,256.677 Q140.2761,256.677 140.4261,256.8363 Q140.5854,256.9863 140.5854,257.1926 Q140.5854,257.3988 140.3792,257.6426 Q140.0792,257.9895 139.6011,258.1863 Q138.9542,258.4582 138.1761,258.4582 Q137.2667,258.4582 136.5448,258.0832 Q135.9542,257.7832 135.5417,257.1457 Q135.1292,256.4988 135.1292,255.7301 L135.1292,255.0363 Q135.1292,254.2395 135.4948,253.5551 Q135.8698,252.8613 136.5261,252.4957 Q137.1823,252.1207 137.9229,252.1207 Q138.3636,252.1207 138.7479,252.2238 Q139.1417,252.3176 139.4698,252.5332 Z " fill="#000000"/><text fill="#000000" font-family="sans-serif" font-size="8.4" lengthAdjust="spacing" textLength="83.1059" x="150.1104" y="258.4863">CarouselSearchGame</text><line style="stroke:#181818;stroke-width:0.3;" x1="57.3" x2="306.5268" y1="264.6082" y2="264.6082"/><rect fill="none" height="3.6" style="stroke:#C82930;stroke-width:0.6;" width="3.6" x="61.5" y="271.6945"/><text fill="#000000" font-family="sans-serif" font-size="8.4" lengthAdjust="spacing" textLength="61.1625" x="68.7" y="276.0727">inputText: String</text><rect fill="none" height="3.6" style="stroke:#C82930;stroke-width:0.6;" width="3.6" x="61.5" y="282.8672"/><text fill="#000000" font-family="sans-serif" font-size="8.4" lengthAdjust="spacing" textLength="98.0273" x="68.7" y="287.2453">imgUrls: ArrayList&lt;String&gt;</text><rect fill="none" height="3.6" style="stroke:#C82930;stroke-width:0.6;" width="3.6" x="61.5" y="294.0398"/><text fill="#000000" font-family="sans-serif" font-size="8.4" lengthAdjust="spacing" textLength="112.0465" x="68.7" y="298.418">gameListType: GameListType</text><line style="stroke:#181818;stroke-width:0.3;" x1="57.3" x2="306.5268" y1="302.9262" y2="302.9262"/><ellipse cx="63.3" cy="311.8125" fill="#84BE84" rx="1.8" ry="1.8" style="stroke:#038048;stroke-width:0.6;"/><text fill="#000000" font-family="sans-serif" font-size="8.4" lengthAdjust="spacing" textLength="234.8268" x="68.7" y="314.3906">CarouselSearchGame(String,ArrayList&lt;String&gt;,GameListType)</text><ellipse cx="63.3" cy="322.9852" fill="#84BE84" rx="1.8" ry="1.8" style="stroke:#038048;stroke-width:0.6;"/><text fill="#000000" font-family="sans-serif" font-size="8.4" lengthAdjust="spacing" textLength="62.5529" x="68.7" y="325.5633">reply(): Message</text></g><!--reverse link Replier to Help--><g id="link_Replier_Help"><path codeLine="96" d="M930.6095,162.163 C962.5415,174.241 997.482,190.6642 1030.2,218.4082 C1046.484,232.2142 1060.146,252.5182 1068.912,267.4762 " fill="none" id="Replier-backto-Help" style="stroke:#181818;stroke-width:0.6;stroke-dasharray:7.0,7.0;"/><polygon fill="none" points="920.508,158.3422,929.3359,165.5302,931.8832,158.7958,920.508,158.3422" style="stroke:#181818;stroke-width:0.6;"/></g><!--reverse link Replier to CarouselSearchGame--><g id="link_Replier_CarouselSearchGame"><path codeLine="97" d="M831.5192,146.0241 C738.4712,148.2981 508.116,159.6202 317.4,218.4082 C295.65,225.1102 273.162,235.1002 252.906,245.3902 " fill="none" id="Replier-backto-CarouselSearchGame" style="stroke:#181818;stroke-width:0.6;stroke-dasharray:7.0,7.0;"/><polygon fill="none" points="842.316,145.7602,831.4313,142.4251,831.6072,149.623,842.316,145.7602" style="stroke:#181818;stroke-width:0.6;"/></g><!--reverse link Replier to Omikuji--><g id="link_Replier_Omikuji"><path codeLine="98" d="M901.3438,173.7934 C920.2618,200.9074 947.898,240.5242 966.75,267.5422 " fill="none" id="Replier-backto-Omikuji" style="stroke:#181818;stroke-width:0.6;stroke-dasharray:7.0,7.0;"/><polygon fill="none" points="895.164,164.9362,898.3914,175.8533,904.2962,171.7334,895.164,164.9362" style="stroke:#181818;stroke-width:0.6;"/></g><!--reverse link Replier to Greet--><g id="link_Replier_Greet"><path codeLine="99" d="M881.4,175.7362 C881.4,202.8502 881.4,240.5242 881.4,267.5422 " fill="none" id="Replier-backto-Greet" style="stroke:#181818;stroke-width:0.6;stroke-dasharray:7.0,7.0;"/><polygon fill="none" points="881.4,164.9362,877.8,175.7362,885,175.7362,881.4,164.9362" style="stroke:#181818;stroke-width:0.6;"/></g><!--reverse link Replier to Parrot--><g id="link_Replier_Parrot"><path codeLine="100" d="M861.4571,173.794 C844.9331,197.482 823.212,228.6082 803.856,256.3582 " fill="none" id="Replier-backto-Parrot" style="stroke:#181818;stroke-width:0.6;stroke-dasharray:7.0,7.0;"/><polygon fill="none" points="867.636,164.9362,858.5045,171.7344,864.4097,175.8537,867.636,164.9362" style="stroke:#181818;stroke-width:0.6;"/></g><!--SRC=[fLPHRzem47xdL-IHgfGVW2eanbXBLw0YgQPfseEJ7C7KYIFReLHTzzjdEmuu8O6EF2KvtttVtUVpnG51d3i1ZVkmGt5Ae4zm0ZuLVGOfmS3wzq1IvxrpxIZ3M_TguCo0SnH1vwFJ2Sw6BsByacrm2uGx1Y1Qn3yXngW2k744xCJ0SGN3IIJnyfLk_dtLGF09XZ43962C6Cqua4VCytJVkK021nzESBJU7J66tjJRRSu-x1rRxb0Cok2zfT3pAIM04fdRmT5aEPILLRZSpF-I-Jw1YyXA9Dy8x7AiuUVqBkfq0R5WhN2rzZX9C-7P6o1jSVJC2BVfJ3voCR8o6ZXsVbBROnApZUTAgz_bvgf-WEy63AKIgRof4OXfBADL0KKBrHKYDSE90BP20TGoB7FT9FhV_-pmPmxiAn98wvir2icrHl932I5zJ2l9bKqMHiqQomfrSRLbwMMtXAmS2soz_633gzKA0JS4H-ZITKjncBjKI0u7uU1I9ggqidOxVP2N44b_lGVM3ZDZjRjhlz4Fd2OBVmE1KDYGP74jifsBHdSMtwVpwNGvLUy_HvutcKszaVwQB-OJct_5Q9pp7Vghek3ULr3ZMIdU7BNJvJ_cpr4g6p6GU3Gf2n4Zd9WKVlss56r6TD4MJ6TQE5nQFQgKAylPgufxda21wBRVWs-avGc9jJNVosTLZvgIFhqJnxOShQBcklqkY0-1W03THJNHbQgjk5U61NGFZLQutDWjYi9kQPkR9HiZGdmKlEJJmeoE6Ke7pZtYQ_bYSkyLOqKLiKP9IC1CewvvJhQGYFe_qRNZPvY4OvgiC8jLQXx8BEGlgPXePGztJLzFU2trFAmArSoh_OrH__ek2wsqPo58vM8WnJunpc__zFjdBrRj48v_Wktmp5sj7OY-hhM3oEzb_m00]--></g></svg>